<?xml version="1.0" encoding="UTF-8"?>
<svg id="Layer_1" xmlns="http://www.w3.org/2000/svg" version="1.1" viewBox="0 0 192 150">
  <!-- Generator: Adobe Illustrator 29.3.0, SVG Export Plug-In . SVG Version: 2.1.0 Build 146)  -->
  <defs>
    <style>
      .st0 {
        fill: none;
        stroke: #808285;
        stroke-linecap: round;
        stroke-linejoin: round;
        stroke-width: 8.5px;
      }
    </style>
  </defs>
  <path class="st0" d="M72.4,16h-24.91c-3.67,0-5.51,0-6.91.71-1.23.63-2.24,1.63-2.86,2.86-.71,1.4-.71,3.24-.71,6.91v24.91c0,3.67,0,5.51.71,6.91.63,1.23,1.63,2.24,2.86,2.86,1.4.71,3.24.71,6.91.71h24.91c3.67,0,5.51,0,6.91-.71,1.23-.63,2.24-1.63,2.86-2.86.71-1.4.71-3.24.71-6.91v-24.91c0-3.67,0-5.51-.71-6.91-.63-1.23-1.63-2.24-2.86-2.86-1.4-.71-3.24-.71-6.91-.71Z"/>
  <path class="st0" d="M144.51,16h-24.91c-3.67,0-5.51,0-6.91.71-1.23.63-2.24,1.63-2.86,2.86-.71,1.4-.71,3.24-.71,6.91v24.91c0,3.67,0,5.51.71,6.91.63,1.23,1.63,2.24,2.86,2.86,1.4.71,3.24.71,6.91.71h24.91c3.67,0,5.51,0,6.91-.71,1.23-.63,2.24-1.63,2.86-2.86.71-1.4.71-3.24.71-6.91v-24.91c0-3.67,0-5.51-.71-6.91-.63-1.23-1.63-2.24-2.86-2.86-1.4-.71-3.24-.71-6.91-.71Z"/>
  <path class="st0" d="M144.51,88.11h-24.91c-3.67,0-5.51,0-6.91.71-1.23.63-2.24,1.63-2.86,2.86-.71,1.4-.71,3.24-.71,6.91v24.91c0,3.67,0,5.51.71,6.91.63,1.23,1.63,2.24,2.86,2.86,1.4.71,3.24.71,6.91.71h24.91c3.67,0,5.51,0,6.91-.71,1.23-.63,2.24-1.63,2.86-2.86.71-1.4.71-3.24.71-6.91v-24.91c0-3.67,0-5.51-.71-6.91-.63-1.23-1.63-2.24-2.86-2.86-1.4-.71-3.24-.71-6.91-.71Z"/>
  <path class="st0" d="M72.4,88.11h-24.91c-3.67,0-5.51,0-6.91.71-1.23.63-2.24,1.63-2.86,2.86-.71,1.4-.71,3.24-.71,6.91v24.91c0,3.67,0,5.51.71,6.91.63,1.23,1.63,2.24,2.86,2.86,1.4.71,3.24.71,6.91.71h24.91c3.67,0,5.51,0,6.91-.71,1.23-.63,2.24-1.63,2.86-2.86.71-1.4.71-3.24.71-6.91v-24.91c0-3.67,0-5.51-.71-6.91-.63-1.23-1.63-2.24-2.86-2.86-1.4-.71-3.24-.71-6.91-.71Z"/>
</svg>