<?xml version="1.0" encoding="UTF-8"?>
<svg id="Layer_1" xmlns="http://www.w3.org/2000/svg" version="1.1" viewBox="0 0 249.04 120.78">
  <!-- Generator: Adobe Illustrator 29.3.0, SVG Export Plug-In . SVG Version: 2.1.0 Build 146)  -->
  <defs>
    <style>
      .st0 {
        fill: #afe2e3;
      }

      .st1 {
        fill: #d6d9dd;
      }

      .st2 {
        fill: #7aa7f4;
      }

      .st3 {
        fill: #7ccbd0;
      }

      .st4 {
        fill: #eedcf7;
      }

      .st5 {
        fill: #eda2d2;
      }

      .st6 {
        fill: #b7e7fd;
      }

      .st7 {
        fill: #f9aca9;
      }

      .st8 {
        fill: #fdd8ad;
      }

      .st9 {
        fill: #cae5dc;
      }

      .st10 {
        fill: #b3b8c0;
      }

      .st11 {
        fill: #9db8dd;
      }

      .st12 {
        fill: #fc8292;
      }

      .st13 {
        fill: #cea7db;
      }
    </style>
  </defs>
  <rect class="st8" x="9.19" y="9.17" width="26.13" height="47.13" rx="6.73" ry="6.73"/>
  <rect class="st7" x="43.19" y="9.17" width="26.13" height="47.13" rx="6.73" ry="6.73"/>
  <rect class="st12" x="77.19" y="9.17" width="26.13" height="47.13" rx="6.73" ry="6.73"/>
  <rect class="st0" x="42.27" y="65.58" width="26.13" height="47.13" rx="6.73" ry="6.73"/>
  <rect class="st3" x="76.28" y="65.58" width="26.13" height="47.13" rx="6.73" ry="6.73"/>
  <rect class="st11" x="179.66" y="65.58" width="26.13" height="47.13" rx="6.73" ry="6.73"/>
  <rect class="st9" x="8.27" y="65.58" width="26.13" height="47.13" rx="6.73" ry="6.73"/>
  <rect class="st4" x="111.19" y="9.17" width="26.13" height="47.13" rx="6.73" ry="6.73"/>
  <rect class="st5" x="145.2" y="9.17" width="26.13" height="47.13" rx="6.73" ry="6.73"/>
  <rect class="st13" x="179.2" y="9.17" width="26.13" height="47.13" rx="6.73" ry="6.73"/>
  <rect class="st6" x="111.19" y="65.58" width="26.13" height="47.13" rx="6.73" ry="6.73"/>
  <rect class="st2" x="145.2" y="65.58" width="26.13" height="47.13" rx="6.73" ry="6.73"/>
  <rect class="st1" x="214.12" y="9.17" width="26.13" height="47.13" rx="6.73" ry="6.73"/>
  <rect class="st10" x="214.12" y="65.58" width="26.13" height="47.13" rx="6.73" ry="6.73"/>
</svg>