<?xml version="1.0" encoding="UTF-8"?>
<svg id="Layer_1" xmlns="http://www.w3.org/2000/svg" version="1.1" viewBox="0 0 192 150">
  <!-- Generator: Adobe Illustrator 29.3.0, SVG Export Plug-In . SVG Version: 2.1.0 Build 146)  -->
  <defs>
    <style>
      .st0 {
        fill: none;
        stroke: #808285;
        stroke-linecap: round;
        stroke-linejoin: round;
        stroke-width: 8.5px;
      }
    </style>
  </defs>
  <path class="st0" d="M107.81,87.1h-35.44M84.19,110.73h-11.81M119.63,63.48h-47.25M143.25,44.29v61.43c0,9.92,0,14.89-1.93,18.68-1.7,3.33-4.41,6.04-7.74,7.74-3.79,1.93-8.75,1.93-18.68,1.93h-37.8c-9.92,0-14.89,0-18.68-1.93-3.33-1.7-6.04-4.41-7.74-7.74-1.93-3.79-1.93-8.75-1.93-18.68v-61.43c0-9.92,0-14.89,1.93-18.68,1.7-3.33,4.41-6.04,7.74-7.74,3.79-1.93,8.75-1.93,18.68-1.93h37.8c9.92,0,14.89,0,18.68,1.93,3.33,1.7,6.04,4.41,7.74,7.74,1.93,3.79,1.93,8.75,1.93,18.68Z"/>
  <path class="st0" d="M142.51,44.21h-20.82c-4.83,0-8.74-3.91-8.74-8.74v-16.79"/>
</svg>