<?xml version="1.0" encoding="UTF-8"?>
<svg id="Layer_1" xmlns="http://www.w3.org/2000/svg" version="1.1" viewBox="0 0 192 150">
  <!-- Generator: Adobe Illustrator 29.3.0, SVG Export Plug-In . SVG Version: 2.1.0 Build 146)  -->
  <defs>
    <style>
      .st0 {
        fill: none;
        stroke: #808285;
        stroke-linecap: round;
        stroke-linejoin: round;
        stroke-width: 8.5px;
      }
    </style>
  </defs>
  <path class="st0" d="M54.7,92.7c-5.5,0-8.25,0-10.42-.9-2.89-1.2-5.19-3.5-6.39-6.39-.9-2.17-.9-4.92-.9-10.42v-40.12c0-6.61,0-9.91,1.29-12.44,1.13-2.22,2.94-4.03,5.16-5.16,2.52-1.29,5.83-1.29,12.44-1.29h40.12c5.5,0,8.25,0,10.42.9,2.89,1.2,5.19,3.49,6.39,6.39.9,2.17.9,4.92.9,10.42M97.18,134h38.94c6.61,0,9.91,0,12.44-1.29,2.22-1.13,4.03-2.94,5.16-5.16,1.29-2.52,1.29-5.83,1.29-12.44v-38.94c0-6.61,0-9.91-1.29-12.44-1.13-2.22-2.94-4.03-5.16-5.16-2.52-1.29-5.83-1.29-12.44-1.29h-38.94c-6.61,0-9.91,0-12.44,1.29-2.22,1.13-4.03,2.94-5.16,5.16-1.29,2.52-1.29,5.83-1.29,12.44v38.94c0,6.61,0,9.91,1.29,12.44,1.13,2.22,2.94,4.03,5.16,5.16,2.52,1.29,5.83,1.29,12.44,1.29Z"/>
</svg>