<?xml version="1.0" encoding="UTF-8"?>
<svg id="Layer_1" xmlns="http://www.w3.org/2000/svg" version="1.1" viewBox="0 0 192 150">
  <!-- Generator: Adobe Illustrator 29.3.0, SVG Export Plug-In . SVG Version: 2.1.0 Build 146)  -->
  <defs>
    <style>
      .st0 {
        fill: none;
        stroke: #808285;
        stroke-linecap: round;
        stroke-linejoin: round;
        stroke-width: 8.5px;
      }
    </style>
  </defs>
  <path class="st0" d="M102.56,42.22l-7.31-14.63c-2.1-4.21-3.16-6.31-4.73-7.85-1.39-1.36-3.06-2.39-4.9-3.03-2.08-.72-4.43-.72-9.14-.72h-25.06c-7.34,0-11.01,0-13.82,1.43-2.47,1.26-4.47,3.26-5.73,5.73-1.43,2.8-1.43,6.48-1.43,13.82v5.24M30.44,42.22h99.64c11.01,0,16.52,0,20.73,2.14,3.7,1.89,6.71,4.89,8.59,8.59,2.14,4.21,2.14,9.71,2.14,20.73v28.84c0,11.01,0,16.52-2.14,20.73-1.89,3.7-4.89,6.71-8.59,8.59-4.21,2.14-9.71,2.14-20.73,2.14H61.91c-11.01,0-16.52,0-20.73-2.14-3.7-1.89-6.71-4.89-8.59-8.59-2.14-4.21-2.14-9.71-2.14-20.73v-60.31Z"/>
</svg>