<?xml version="1.0" encoding="UTF-8"?>
<svg id="Layer_1" xmlns="http://www.w3.org/2000/svg" version="1.1" viewBox="0 0 192 150">
  <!-- Generator: Adobe Illustrator 29.3.0, SVG Export Plug-In . SVG Version: 2.1.0 Build 146)  -->
  <defs>
    <style>
      .st0 {
        fill: none;
        stroke: #808285;
        stroke-linecap: round;
        stroke-linejoin: round;
        stroke-width: 8px;
      }
    </style>
  </defs>
  <path id="home" class="st0" d="M103.64,19.07c-2.73-1.72-4.1-2.58-5.61-2.92-1.33-.29-2.73-.29-4.06,0-1.51.33-2.88,1.19-5.61,2.92l-52.75,33.27c-3.53,2.22-5.29,3.34-6.56,4.73-1.13,1.23-1.96,2.62-2.47,4.1-.58,1.67-.58,3.48-.58,7.1v45.62c0,7.06,0,10.59,1.7,13.29,1.49,2.37,3.87,4.3,6.8,5.51,3.33,1.37,7.68,1.37,16.4,1.37h15.56c2.18,0,3.27,0,4.1-.34.73-.3,1.33-.78,1.7-1.38.42-.67.42-1.56.42-3.32v-27.61c0-3.53,0-5.3.85-6.65.75-1.19,1.94-2.15,3.4-2.76,1.66-.69,3.84-.69,8.2-.69h21.78c4.36,0,6.53,0,8.2.69,1.46.6,2.65,1.57,3.4,2.76.85,1.35.85,3.11.85,6.65v27.61c0,1.77,0,2.65.42,3.32.37.59.97,1.08,1.7,1.38.83.34,1.92.34,4.1.34h15.56c8.71,0,13.07,0,16.4-1.37,2.93-1.21,5.31-3.14,6.8-5.51,1.7-2.7,1.7-6.23,1.7-13.29v-45.62c0-3.62,0-5.43-.58-7.1-.51-1.48-1.35-2.87-2.47-4.1-1.27-1.39-3.03-2.5-6.56-4.73l-52.75-33.27Z"/>
</svg>