<?xml version="1.0" encoding="UTF-8"?>
<svg id="Layer_1" xmlns="http://www.w3.org/2000/svg" version="1.1" viewBox="0 0 192 150">
  <!-- Generator: Adobe Illustrator 29.3.0, SVG Export Plug-In . SVG Version: 2.1.0 Build 146)  -->
  <defs>
    <style>
      .st0 {
        fill: none;
        stroke: #808285;
        stroke-linecap: round;
        stroke-linejoin: round;
        stroke-width: 8.23px;
      }
    </style>
  </defs>
  <path class="st0" d="M41.9,132.28l46.18-43.21c2.77-2.59,4.16-3.89,5.76-4.38,1.41-.43,2.92-.43,4.33,0,1.6.49,2.98,1.78,5.76,4.38l45.87,42.92M110,94.76l20.08-18.79c2.77-2.59,4.16-3.89,5.76-4.38,1.41-.43,2.92-.43,4.33,0,1.6.49,2.98,1.78,5.76,4.38l20.08,18.79M82,55.46c0,7.24-6.27,13.1-14,13.1s-14-5.87-14-13.1,6.27-13.1,14-13.1,14,5.87,14,13.1ZM59.6,134.07h72.8c11.76,0,17.64,0,22.13-2.14,3.95-1.88,7.16-4.89,9.18-8.59,2.29-4.2,2.29-9.71,2.29-20.71v-55.03c0-11.01,0-16.51-2.29-20.71-2.01-3.7-5.23-6.7-9.18-8.59-4.49-2.14-10.37-2.14-22.13-2.14H59.6c-11.76,0-17.64,0-22.13,2.14-3.95,1.88-7.16,4.89-9.18,8.59-2.29,4.2-2.29,9.71-2.29,20.71v55.03c0,11.01,0,16.51,2.29,20.71,2.01,3.7,5.23,6.7,9.18,8.59,4.49,2.14,10.37,2.14,22.13,2.14Z"/>
</svg>