<?xml version="1.0" encoding="UTF-8"?>
<svg id="Layer_1" xmlns="http://www.w3.org/2000/svg" version="1.1" viewBox="0 0 192 150">
  <!-- Generator: Adobe Illustrator 29.3.0, SVG Export Plug-In . SVG Version: 2.1.0 Build 146)  -->
  <defs>
    <style>
      .st0 {
        fill: none;
        stroke: #808285;
        stroke-linecap: round;
        stroke-linejoin: round;
        stroke-width: 12.04px;
      }
    </style>
  </defs>
  <path class="st0" d="M84.05,80.97c2.57,3.43,5.84,6.27,9.6,8.32,3.76,2.05,7.92,3.27,12.19,3.58,4.27.31,8.56-.31,12.57-1.81,4.01-1.5,7.66-3.84,10.69-6.87l17.92-17.92c5.44-5.63,8.45-13.18,8.38-21.01-.07-7.83-3.21-15.32-8.75-20.86-5.54-5.54-13.03-8.68-20.86-8.75-7.83-.07-15.38,2.94-21.01,8.38l-10.28,10.22M107.95,69.03c-2.57-3.43-5.84-6.27-9.6-8.32-3.76-2.05-7.91-3.27-12.19-3.58-4.27-.31-8.56.31-12.57,1.81-4.01,1.5-7.66,3.84-10.69,6.87l-17.92,17.92c-5.44,5.63-8.45,13.18-8.38,21.01.07,7.83,3.21,15.32,8.75,20.86,5.54,5.54,13.03,8.68,20.86,8.75,7.83.07,15.38-2.94,21.01-8.38l10.22-10.22"/>
</svg>