<?xml version="1.0" encoding="UTF-8"?>
<svg id="Layer_1" xmlns="http://www.w3.org/2000/svg" version="1.1" viewBox="0 0 192 150">
  <!-- Generator: Adobe Illustrator 29.3.0, SVG Export Plug-In . SVG Version: 2.1.0 Build 146)  -->
  <defs>
    <style>
      .st0 {
        fill: #f9aca9;
      }

      .st0, .st1 {
        stroke: #808285;
        stroke-linecap: round;
        stroke-linejoin: round;
        stroke-width: 8.5px;
      }

      .st1 {
        fill: #7ccbd0;
      }
    </style>
  </defs>
  <path class="st1" d="M108.55,92.15h38.69c6.57,0,9.85,0,12.36-1.28,2.21-1.12,4-2.92,5.12-5.12,1.28-2.51,1.28-5.79,1.28-12.36v-38.69c0-6.57,0-9.85-1.28-12.36-1.12-2.21-2.92-4-5.12-5.12-2.51-1.28-5.79-1.28-12.36-1.28h-38.69c-6.57,0-9.85,0-12.36,1.28-2.21,1.12-4,2.92-5.12,5.12-1.28,2.51-1.28,5.79-1.28,12.36v38.69c0,6.57,0,9.85,1.28,12.36,1.12,2.21,2.92,4,5.12,5.12,2.51,1.28,5.79,1.28,12.36,1.28Z"/>
  <path class="st0" d="M44.76,134.07h38.69c6.57,0,9.85,0,12.36-1.28,2.21-1.12,4-2.92,5.12-5.12,1.28-2.51,1.28-5.79,1.28-12.36v-38.69c0-6.57,0-9.85-1.28-12.36-1.12-2.21-2.92-4-5.12-5.12-2.51-1.28-5.79-1.28-12.36-1.28h-38.69c-6.57,0-9.85,0-12.36,1.28-2.21,1.12-4,2.92-5.12,5.12-1.28,2.51-1.28,5.79-1.28,12.36v38.69c0,6.57,0,9.85,1.28,12.36,1.12,2.21,2.92,4,5.12,5.12,2.51,1.28,5.79,1.28,12.36,1.28Z"/>
</svg>