<?xml version="1.0" encoding="UTF-8"?>
<svg id="Layer_1" xmlns="http://www.w3.org/2000/svg" version="1.1" viewBox="0 0 192 150">
  <!-- Generator: Adobe Illustrator 29.3.0, SVG Export Plug-In . SVG Version: 2.1.0 Build 146)  -->
  <defs>
    <style>
      .st0 {
        stroke-width: 8.5px;
      }

      .st0, .st1 {
        fill: none;
        stroke: #808285;
        stroke-linecap: round;
        stroke-linejoin: round;
      }

      .st1 {
        stroke-width: 8.62px;
      }
    </style>
  </defs>
  <path id="image" class="st0" d="M59.41,113.67l31.23-29.23c1.87-1.75,2.81-2.63,3.89-2.96.95-.29,1.98-.29,2.93,0,1.08.33,2.02,1.21,3.89,2.96l31.02,29.03M105.47,88.29l13.58-12.71c1.87-1.75,2.81-2.63,3.89-2.96.95-.29,1.98-.29,2.93,0,1.08.33,2.02,1.21,3.89,2.96l13.58,12.71M86.53,61.71c0,4.89-4.24,8.86-9.47,8.86s-9.47-3.97-9.47-8.86,4.24-8.86,9.47-8.86,9.47,3.97,9.47,8.86ZM71.38,114.88h49.24c7.96,0,11.93,0,14.97-1.45,2.67-1.27,4.85-3.31,6.21-5.81,1.55-2.84,1.55-6.57,1.55-14.01v-37.22c0-7.44,0-11.17-1.55-14.01-1.36-2.5-3.53-4.53-6.21-5.81-3.04-1.45-7.02-1.45-14.97-1.45h-49.24c-7.96,0-11.93,0-14.97,1.45-2.67,1.27-4.85,3.31-6.21,5.81-1.55,2.84-1.55,6.57-1.55,14.01v37.22c0,7.44,0,11.17,1.55,14.01,1.36,2.5,3.53,4.53,6.21,5.81,3.04,1.45,7.02,1.45,14.97,1.45Z"/>
  <path class="st1" d="M26.05,35.12v-6.5c0-5.78,4.68-10.46,10.46-10.46h12.14"/>
  <path class="st1" d="M48.65,134.24h-12.14c-5.78,0-10.46-4.68-10.46-10.46v-10.1"/>
  <path class="st1" d="M166.05,113.67v10.1c0,5.78-4.68,10.46-10.46,10.46h-12.24"/>
  <path class="st1" d="M143.35,18.16h12.24c5.78,0,10.46,4.68,10.46,10.46v6.5"/>
</svg>