<?xml version="1.0" encoding="UTF-8"?>
<svg id="Layer_1" xmlns="http://www.w3.org/2000/svg" version="1.1" viewBox="0 0 192 150">
  <!-- Generator: Adobe Illustrator 29.3.0, SVG Export Plug-In . SVG Version: 2.1.0 Build 146)  -->
  <defs>
    <style>
      .st0 {
        fill: #d1d3d4;
      }

      .st1 {
        fill: none;
        stroke: #808285;
        stroke-linecap: round;
        stroke-linejoin: round;
        stroke-width: 6.88px;
      }
    </style>
  </defs>
  <path class="st1" d="M143.74,35.41c-.11-4.88-.5-7.94-1.87-10.44-1.68-3.09-4.37-5.61-7.67-7.18-3.76-1.79-8.67-1.79-18.51-1.79h-60.88c-9.84,0-14.75,0-18.51,1.79-3.3,1.58-5.99,4.09-7.67,7.18-1.91,3.52-1.91,8.12-1.91,17.32v46.02c0,9.2,0,13.81,1.91,17.32,1.68,3.09,4.37,5.61,7.67,7.18,2.81,1.34,6.27,1.68,11.95,1.76"/>
  <g>
    <g>
      <path class="st0" d="M95.03,68.25c0,6.06-5.25,10.96-11.71,10.96s-11.71-4.9-11.71-10.96,5.25-10.95,11.71-10.95,11.71,4.9,11.71,10.95Z"/>
      <path class="st0" d="M165.28,101.12v6.57c0,9.2,0,13.81-1.91,17.32-1.69,3.1-4.37,5.6-7.68,7.18-1.11.53-2.33.91-3.75,1.16l-.22-1.1-33.28-31.14,16.79-15.72c2.32-2.17,3.48-3.26,4.81-3.66,1.17-.36,2.45-.36,3.62,0,1.33.4,2.5,1.49,4.81,3.66l16.79,15.72h.02Z"/>
      <path class="st0" d="M151.72,132.25l.22,1.1c-3.36.63-7.84.63-14.76.63h-60.88c-7.06,0-11.58,0-14.97-.67l.17-.82,38.62-36.14c2.32-2.17,3.48-3.26,4.81-3.66,1.17-.37,2.45-.37,3.62,0,1.33.4,2.5,1.49,4.81,3.66l5.08,4.76,33.28,31.14h0Z"/>
    </g>
    <g>
      <path class="st1" d="M61.5,132.5l38.62-36.14c2.32-2.17,3.48-3.26,4.81-3.66,1.17-.37,2.45-.37,3.62,0,1.33.4,2.5,1.49,4.81,3.66l5.08,4.76,33.28,31.14"/>
      <path class="st1" d="M118.44,101.12l16.79-15.72c2.32-2.17,3.48-3.26,4.81-3.66,1.17-.36,2.45-.36,3.62,0,1.33.4,2.5,1.49,4.81,3.66l16.79,15.72"/>
      <path class="st1" d="M95.03,68.25c0,6.06-5.25,10.96-11.71,10.96s-11.71-4.9-11.71-10.96,5.25-10.95,11.71-10.95,11.71,4.9,11.71,10.95Z"/>
      <path class="st1" d="M61.33,133.33c3.38.67,7.9.67,14.97.67h60.88c6.92,0,11.4,0,14.76-.63,1.42-.26,2.63-.63,3.75-1.16,3.31-1.58,5.99-4.08,7.68-7.18,1.91-3.51,1.91-8.12,1.91-17.32v-46.01c0-9.2,0-13.8-1.91-17.32-1.69-3.09-4.37-5.6-7.68-7.18-3.76-1.79-8.67-1.79-18.51-1.79h-60.88c-9.84,0-14.75,0-18.51,1.79-3.31,1.58-5.99,4.09-7.68,7.18-1.91,3.52-1.91,8.12-1.91,17.32v46.01c0,9.2,0,13.81,1.91,17.32,1.69,3.1,4.37,5.6,7.68,7.18,1.07.5,2.21.87,3.54,1.12h0Z"/>
    </g>
  </g>
</svg>