<?xml version="1.0" encoding="UTF-8"?>
<svg id="Layer_1" xmlns="http://www.w3.org/2000/svg" version="1.1" viewBox="0 0 192 150">
  <!-- Generator: Adobe Illustrator 29.3.0, SVG Export Plug-In . SVG Version: 2.1.0 Build 146)  -->
  <defs>
    <style>
      .st0 {
        fill: none;
        stroke: #808285;
        stroke-linecap: round;
        stroke-linejoin: round;
        stroke-width: 8.5px;
      }
    </style>
  </defs>
  <path class="st0" d="M149.29,120.06c0-4.09,0-6.14-.46-8.06-.41-1.71-1.08-3.34-1.99-4.84-1.03-1.69-2.46-3.14-5.34-6.03L62.05,21.13c-6.88-6.93-18.04-6.93-24.92,0-6.88,6.93-6.88,18.17,0,25.1l79.45,80c2.87,2.89,4.31,4.34,5.99,5.38,1.49.92,3.11,1.59,4.8,2,1.91.46,3.94.46,8.01.46h13.91s0-14.01,0-14.01Z"/>
  <line class="st0" x1="107.71" y1="117.29" x2="134.69" y2="94.27"/>
  <line class="st0" x1="121.2" y1="105.78" x2="37.13" y2="21.13"/>
</svg>