<?xml version="1.0" encoding="UTF-8"?>
<svg id="Layer_1" xmlns="http://www.w3.org/2000/svg" version="1.1" viewBox="0 0 192 150">
  <!-- Generator: Adobe Illustrator 29.3.0, SVG Export Plug-In . SVG Version: 2.1.0 Build 146)  -->
  <defs>
    <style>
      .st0 {
        fill: none;
        stroke: #808285;
        stroke-linecap: round;
        stroke-linejoin: round;
        stroke-width: 8.5px;
      }
    </style>
  </defs>
  <path class="st0" d="M119.33,48.78h-49.78c-4.36,0-6.53,0-8.2-.71-1.46-.63-2.65-1.63-3.4-2.86-.85-1.4-.85-3.24-.85-6.91v-22.29M134.89,134v-41.96c0-3.67,0-5.51-.85-6.91-.75-1.23-1.94-2.24-3.4-2.86-1.66-.71-3.84-.71-8.2-.71h-52.89c-4.36,0-6.53,0-8.2.71-1.46.63-2.65,1.63-3.4,2.86-.85,1.4-.85,3.24-.85,6.91v41.96M166,57.47v45.07c0,11.01,0,16.52-2.54,20.73-2.24,3.7-5.81,6.71-10.2,8.59-4.99,2.14-11.53,2.14-24.59,2.14H63.33c-13.07,0-19.6,0-24.59-2.14-4.39-1.89-7.96-4.89-10.2-8.59-2.54-4.21-2.54-9.71-2.54-20.73v-55.07c0-11.01,0-16.52,2.54-20.73,2.24-3.7,5.81-6.71,10.2-8.59,4.99-2.14,11.53-2.14,24.59-2.14h53.47c3.8,0,5.71,0,7.5.36,1.59.32,3.1.85,4.5,1.57,1.57.81,2.92,1.94,5.61,4.21l24.31,20.49c2.69,2.27,4.04,3.4,5,4.72.85,1.17,1.48,2.45,1.86,3.79.43,1.51.43,3.11.43,6.32Z"/>
</svg>