<?xml version="1.0" encoding="UTF-8"?>
<svg id="Layer_1" xmlns="http://www.w3.org/2000/svg" version="1.1" viewBox="0 0 192 150">
  <!-- Generator: Adobe Illustrator 29.3.0, SVG Export Plug-In . SVG Version: 2.1.0 Build 146)  -->
  <defs>
    <style>
      .st0 {
        fill: none;
        stroke: #808285;
        stroke-linecap: round;
        stroke-linejoin: round;
        stroke-width: 8.5px;
      }
    </style>
  </defs>
  <path class="st0" d="M80.62,118.49l3.45,7.76c1.03,2.31,2.7,4.27,4.82,5.65,2.12,1.38,4.59,2.11,7.12,2.11,2.53,0,5-.73,7.12-2.11,2.12-1.38,3.79-3.34,4.82-5.65l3.45-7.76c1.23-2.75,3.29-5.05,5.9-6.56,2.62-1.51,5.66-2.16,8.67-1.84l8.44.9c2.51.27,5.05-.2,7.3-1.35,2.25-1.15,4.12-2.92,5.38-5.11,1.26-2.19,1.87-4.69,1.73-7.21-.13-2.52-.99-4.95-2.48-6.99l-4.99-6.86c-1.78-2.46-2.73-5.43-2.71-8.46,0-3.03.96-5.98,2.74-8.43l5-6.86c1.49-2.04,2.35-4.47,2.48-6.99.13-2.52-.47-5.03-1.73-7.21-1.26-2.19-3.13-3.96-5.38-5.11-2.25-1.15-4.78-1.61-7.3-1.35l-8.44.9c-3.01.32-6.05-.33-8.67-1.84-2.61-1.52-4.68-3.82-5.9-6.59l-3.47-7.76c-1.03-2.31-2.7-4.27-4.82-5.65-2.12-1.38-4.59-2.11-7.12-2.11-2.53,0-5,.73-7.12,2.11-2.12,1.38-3.79,3.34-4.82,5.65l-3.45,7.76c-1.22,2.76-3.29,5.07-5.9,6.59-2.62,1.51-5.66,2.16-8.67,1.84l-8.46-.9c-2.51-.27-5.05.2-7.3,1.35-2.25,1.15-4.12,2.92-5.38,5.11-1.26,2.19-1.87,4.69-1.73,7.21.13,2.52.99,4.95,2.48,6.99l5,6.86c1.78,2.45,2.74,5.4,2.74,8.43,0,3.03-.96,5.98-2.74,8.43l-5,6.86c-1.49,2.04-2.35,4.47-2.48,6.99-.13,2.52.47,5.03,1.73,7.21,1.26,2.19,3.13,3.96,5.38,5.11s4.78,1.62,7.3,1.35l8.44-.9c3.01-.32,6.05.33,8.67,1.84,2.62,1.51,4.7,3.82,5.93,6.59Z"/>
  <circle class="st0" cx="96" cy="75" r="18.15"/>
</svg>