<?xml version="1.0" encoding="UTF-8"?>
<svg id="Layer_1" xmlns="http://www.w3.org/2000/svg" version="1.1" viewBox="0 0 192 150">
  <!-- Generator: Adobe Illustrator 29.3.0, SVG Export Plug-In . SVG Version: 2.1.0 Build 146)  -->
  <defs>
    <style>
      .st0 {
        fill: #808285;
      }
    </style>
  </defs>
  <path class="st0" d="M124.62,35.83h-2.5l-10.74-13.92c-2.8-3.61-7.11-5.73-11.68-5.74h-19c-4.57.02-8.88,2.13-11.68,5.74l-10.74,13.92h-2.5c-13.57.02-24.57,11.01-24.58,24.58v49.17c.02,13.57,11.01,24.57,24.58,24.58h68.83c13.57-.02,24.57-11.01,24.58-24.58v-49.17c-.02-13.57-11.01-24.57-24.58-24.58ZM76.81,27.91c.93-1.2,2.37-1.91,3.89-1.92h19c1.52,0,2.96.71,3.89,1.92l6.11,7.92h-39l6.11-7.92ZM139.37,109.58c0,8.15-6.6,14.75-14.75,14.75H55.78c-8.15,0-14.75-6.6-14.75-14.75v-49.17c0-8.15,6.6-14.75,14.75-14.75h68.83c8.15,0,14.75,6.6,14.75,14.75v49.17Z"/>
  <path class="st0" d="M90.2,55.49c-16.29,0-29.5,13.21-29.5,29.5s13.21,29.5,29.5,29.5,29.5-13.21,29.5-29.5c-.02-16.29-13.21-29.48-29.5-29.5ZM90.2,104.66c-10.86,0-19.67-8.81-19.67-19.67s8.81-19.67,19.67-19.67,19.67,8.81,19.67,19.67-8.81,19.67-19.67,19.67Z"/>
</svg>