<?xml version="1.0" encoding="UTF-8"?>
<svg id="Layer_1" xmlns="http://www.w3.org/2000/svg" version="1.1" viewBox="0 0 192 150">
  <!-- Generator: Adobe Illustrator 29.3.0, SVG Export Plug-In . SVG Version: 2.1.0 Build 146)  -->
  <defs>
    <style>
      .st0 {
        fill: #ffdce0;
        stroke: #808285;
        stroke-linecap: round;
        stroke-linejoin: round;
        stroke-width: 8.5px;
      }
    </style>
  </defs>
  <path class="st0" d="M66.05,134h59.91c10.17,0,15.25,0,19.14-1.98,3.42-1.73,6.19-4.52,7.93-7.93,1.98-3.89,1.98-8.96,1.98-19.14v-59.91c0-10.17,0-15.25-1.98-19.14-1.73-3.42-4.52-6.19-7.93-7.93-3.89-1.98-8.96-1.98-19.14-1.98h-59.91c-10.17,0-15.25,0-19.14,1.98-3.42,1.73-6.19,4.52-7.93,7.93-1.98,3.89-1.98,8.96-1.98,19.14v59.91c0,10.17,0,15.25,1.98,19.14,1.73,3.42,4.52,6.19,7.93,7.93,3.89,1.98,8.96,1.98,19.14,1.98Z"/>
</svg>