<?xml version="1.0" encoding="UTF-8"?>
<svg id="Layer_1" xmlns="http://www.w3.org/2000/svg" version="1.1" viewBox="0 0 192 150">
  <!-- Generator: Adobe Illustrator 29.3.0, SVG Export Plug-In . SVG Version: 2.1.0 Build 146)  -->
  <defs>
    <style>
      .st0 {
        fill: #d1d3d4;
      }

      .st1, .st2, .st3, .st4, .st5, .st6, .st7, .st8, .st9, .st10, .st11, .st12, .st13 {
        stroke-linecap: round;
        stroke-linejoin: round;
      }

      .st1, .st2, .st3, .st4, .st5, .st6, .st7, .st8, .st9, .st10, .st11, .st12, .st13, .st14 {
        stroke: #808285;
      }

      .st1, .st2, .st3, .st4, .st5, .st6, .st7, .st8, .st9, .st11, .st14 {
        fill: none;
      }

      .st1, .st2, .st3, .st4, .st13, .st15 {
        display: none;
      }

      .st1, .st7, .st10, .st12, .st14 {
        stroke-width: 8.5px;
      }

      .st2, .st9 {
        stroke-width: 8px;
      }

      .st3 {
        stroke-width: 8.23px;
      }

      .st4 {
        stroke-width: 12.04px;
      }

      .st5 {
        stroke-width: 9.27px;
      }

      .st6 {
        stroke-width: 8.49px;
      }

      .st8 {
        stroke-width: 8.62px;
      }

      .st10, .st16 {
        fill: #f9aca9;
      }

      .st11 {
        stroke-width: 6.88px;
      }

      .st12, .st17 {
        fill: #7ccbd0;
      }

      .st13 {
        stroke-width: 8.51px;
      }

      .st13, .st18 {
        fill: #b3b8c0;
      }

      .st14 {
        stroke-miterlimit: 10;
      }

      .st19 {
        fill: #9db8dd;
      }
    </style>
  </defs>
  <circle class="st15" cx="99.05" cy="69.33" r="80.67"/>
  <g id="_x35_12" class="st15">
    <rect class="st17" x="47.48" y="81.57" width="41.6" height="42.17" rx="1.94" ry="1.94"/>
    <ellipse class="st16" cx="123.77" cy="102.66" rx="20.8" ry="21.09"/>
    <path class="st19" d="M66.73,27.37l-19.17,38.46c-.57,1.15.26,2.51,1.55,2.51h38.33c1.29,0,2.13-1.35,1.55-2.51l-19.17-38.46c-.64-1.28-2.47-1.28-3.1,0Z"/>
    <path class="st18" d="M144.62,68.49h-35.51c-3.41,0-6.19-2.84-6.19-6.33V26.26h10.43v31.65h31.27v10.58Z"/>
  </g>
  <path id="home" class="st2" d="M103.64,19.07c-2.73-1.72-4.1-2.58-5.61-2.92-1.33-.29-2.73-.29-4.06,0-1.51.33-2.88,1.19-5.61,2.92l-52.75,33.27c-3.53,2.22-5.29,3.34-6.56,4.73-1.13,1.23-1.96,2.62-2.47,4.1-.58,1.67-.58,3.48-.58,7.1v45.62c0,7.06,0,10.59,1.7,13.29,1.49,2.37,3.87,4.3,6.8,5.51,3.33,1.37,7.68,1.37,16.4,1.37h15.56c2.18,0,3.27,0,4.1-.34.73-.3,1.33-.78,1.7-1.38.42-.67.42-1.56.42-3.32v-27.61c0-3.53,0-5.3.85-6.65.75-1.19,1.94-2.15,3.4-2.76,1.66-.69,3.84-.69,8.2-.69h21.78c4.36,0,6.53,0,8.2.69,1.46.6,2.65,1.57,3.4,2.76.85,1.35.85,3.11.85,6.65v27.61c0,1.77,0,2.65.42,3.32.37.59.97,1.08,1.7,1.38.83.34,1.92.34,4.1.34h15.56c8.71,0,13.07,0,16.4-1.37,2.93-1.21,5.31-3.14,6.8-5.51,1.7-2.7,1.7-6.23,1.7-13.29v-45.62c0-3.62,0-5.43-.58-7.1-.51-1.48-1.35-2.87-2.47-4.1-1.27-1.39-3.03-2.5-6.56-4.73l-52.75-33.27Z"/>
  <g id="to_do" class="st15">
    <path class="st7" d="M68.24,35.09l-22.86,22.86-21.1-21.1"/>
    <line class="st5" x1="83.25" y1="57.95" x2="171.81" y2="57.95"/>
    <path class="st7" d="M66.19,89.13l-22.86,22.86-21.1-21.1"/>
    <line class="st5" x1="81.2" y1="111.99" x2="169.77" y2="111.99"/>
  </g>
  <g id="note" class="st15">
    <line class="st7" x1="24.92" y1="36.05" x2="167.08" y2="36.05"/>
    <line class="st7" x1="24.92" y1="75" x2="167.08" y2="75"/>
    <line class="st7" x1="24.92" y1="113.95" x2="134.29" y2="113.95"/>
  </g>
  <path id="image" class="st3" d="M41.9,132.28l46.18-43.21c2.77-2.59,4.16-3.89,5.76-4.38,1.41-.43,2.92-.43,4.33,0,1.6.49,2.98,1.78,5.76,4.38l45.87,42.92M110,94.76l20.08-18.79c2.77-2.59,4.16-3.89,5.76-4.38,1.41-.43,2.92-.43,4.33,0,1.6.49,2.98,1.78,5.76,4.38l20.08,18.79M82,55.46c0,7.24-6.27,13.1-14,13.1s-14-5.87-14-13.1,6.27-13.1,14-13.1,14,5.87,14,13.1ZM59.6,134.07h72.8c11.76,0,17.64,0,22.13-2.14,3.95-1.88,7.16-4.89,9.18-8.59,2.29-4.2,2.29-9.71,2.29-20.71v-55.03c0-11.01,0-16.51-2.29-20.71-2.01-3.7-5.23-6.7-9.18-8.59-4.49-2.14-10.37-2.14-22.13-2.14H59.6c-11.76,0-17.64,0-22.13,2.14-3.95,1.88-7.16,4.89-9.18,8.59-2.29,4.2-2.29,9.71-2.29,20.71v55.03c0,11.01,0,16.51,2.29,20.71,2.01,3.7,5.23,6.7,9.18,8.59,4.49,2.14,10.37,2.14,22.13,2.14Z"/>
  <g>
    <path class="st11" d="M143.75,35.42c-.11-4.88-.5-7.94-1.87-10.44-1.68-3.09-4.37-5.61-7.67-7.18-3.76-1.79-8.67-1.79-18.51-1.79h-60.88c-9.84,0-14.75,0-18.51,1.79-3.3,1.58-5.99,4.09-7.67,7.18-1.91,3.52-1.91,8.12-1.91,17.32v46.02c0,9.2,0,13.81,1.91,17.32,1.68,3.09,4.37,5.61,7.67,7.18,2.81,1.34,6.27,1.68,11.95,1.76"/>
    <g>
      <g>
        <path class="st0" d="M95.04,68.25c0,6.06-5.25,10.96-11.71,10.96s-11.71-4.9-11.71-10.96,5.25-10.95,11.71-10.95,11.71,4.9,11.71,10.95Z"/>
        <path class="st0" d="M165.29,101.13v6.57c0,9.2,0,13.81-1.91,17.32-1.69,3.1-4.37,5.6-7.68,7.18-1.11.53-2.33.91-3.75,1.16l-.22-1.1-33.28-31.14,16.79-15.72c2.32-2.17,3.48-3.26,4.81-3.66,1.17-.36,2.45-.36,3.62,0,1.33.4,2.5,1.49,4.81,3.66l16.79,15.72Z"/>
        <path class="st0" d="M151.73,132.26l.22,1.1c-3.36.63-7.84.63-14.76.63h-60.88c-7.06,0-11.58,0-14.97-.67l.17-.82,38.62-36.14c2.32-2.17,3.48-3.26,4.81-3.66,1.17-.37,2.45-.37,3.62,0,1.33.4,2.5,1.49,4.81,3.66l5.08,4.76,33.28,31.14Z"/>
      </g>
      <g>
        <path class="st11" d="M61.51,132.51l38.62-36.14c2.32-2.17,3.48-3.26,4.81-3.66,1.17-.37,2.45-.37,3.62,0,1.33.4,2.5,1.49,4.81,3.66l5.08,4.76,33.28,31.14"/>
        <path class="st11" d="M118.45,101.13l16.79-15.72c2.32-2.17,3.48-3.26,4.81-3.66,1.17-.36,2.45-.36,3.62,0,1.33.4,2.5,1.49,4.81,3.66l16.79,15.72"/>
        <path class="st11" d="M95.04,68.25c0,6.06-5.25,10.96-11.71,10.96s-11.71-4.9-11.71-10.96,5.25-10.95,11.71-10.95,11.71,4.9,11.71,10.95Z"/>
        <path class="st11" d="M61.34,133.33c3.38.67,7.9.67,14.97.67h60.88c6.92,0,11.4,0,14.76-.63,1.42-.26,2.63-.63,3.75-1.16,3.31-1.58,5.99-4.08,7.68-7.18,1.91-3.51,1.91-8.12,1.91-17.32v-46.01c0-9.2,0-13.8-1.91-17.32-1.69-3.09-4.37-5.6-7.68-7.18-3.76-1.79-8.67-1.79-18.51-1.79h-60.88c-9.84,0-14.75,0-18.51,1.79-3.31,1.58-5.99,4.09-7.68,7.18-1.91,3.52-1.91,8.12-1.91,17.32v46.01c0,9.2,0,13.81,1.91,17.32,1.69,3.1,4.37,5.6,7.68,7.18,1.07.5,2.21.87,3.54,1.12Z"/>
      </g>
    </g>
  </g>
  <g id="screenshot" class="st15">
    <path id="image1" data-name="image" class="st7" d="M59.41,113.67l31.23-29.23c1.87-1.75,2.81-2.63,3.89-2.96.95-.29,1.98-.29,2.93,0,1.08.33,2.02,1.21,3.89,2.96l31.02,29.03M105.47,88.29l13.58-12.71c1.87-1.75,2.81-2.63,3.89-2.96.95-.29,1.98-.29,2.93,0,1.08.33,2.02,1.21,3.89,2.96l13.58,12.71M86.53,61.71c0,4.89-4.24,8.86-9.47,8.86s-9.47-3.97-9.47-8.86,4.24-8.86,9.47-8.86,9.47,3.97,9.47,8.86ZM71.38,114.88h49.24c7.96,0,11.93,0,14.97-1.45,2.67-1.27,4.85-3.31,6.21-5.81,1.55-2.84,1.55-6.57,1.55-14.01v-37.22c0-7.44,0-11.17-1.55-14.01-1.36-2.5-3.53-4.53-6.21-5.81-3.04-1.45-7.02-1.45-14.97-1.45h-49.24c-7.96,0-11.93,0-14.97,1.45-2.67,1.27-4.85,3.31-6.21,5.81-1.55,2.84-1.55,6.57-1.55,14.01v37.22c0,7.44,0,11.17,1.55,14.01,1.36,2.5,3.53,4.53,6.21,5.81,3.04,1.45,7.02,1.45,14.97,1.45Z"/>
    <path class="st8" d="M26.05,35.12v-6.5c0-5.78,4.68-10.46,10.46-10.46h12.14"/>
    <path class="st8" d="M48.65,134.24h-12.14c-5.78,0-10.46-4.68-10.46-10.46v-10.1"/>
    <path class="st8" d="M166.05,113.67v10.1c0,5.78-4.68,10.46-10.46,10.46h-12.24"/>
    <path class="st8" d="M143.35,18.16h12.24c5.78,0,10.46,4.68,10.46,10.46v6.5"/>
  </g>
  <path id="link" class="st4" d="M84.05,80.97c2.57,3.43,5.84,6.27,9.6,8.32,3.76,2.05,7.92,3.27,12.19,3.58,4.27.31,8.56-.31,12.57-1.81,4.01-1.5,7.66-3.84,10.69-6.87l17.92-17.92c5.44-5.63,8.45-13.18,8.38-21.01-.07-7.83-3.21-15.32-8.75-20.86-5.54-5.54-13.03-8.68-20.86-8.75-7.83-.07-15.38,2.94-21.01,8.38l-10.28,10.22M107.95,69.03c-2.57-3.43-5.84-6.27-9.6-8.32-3.76-2.05-7.91-3.27-12.19-3.58-4.27-.31-8.56.31-12.57,1.81-4.01,1.5-7.66,3.84-10.69,6.87l-17.92,17.92c-5.44,5.63-8.45,13.18-8.38,21.01.07,7.83,3.21,15.32,8.75,20.86,5.54,5.54,13.03,8.68,20.86,8.75,7.83.07,15.38-2.94,21.01-8.38l10.22-10.22"/>
  <g id="note1" data-name="note" class="st15">
    <rect class="st9" x="26" y="15.93" width="140" height="118.13" rx="14.55" ry="14.55"/>
    <line class="st7" x1="61" y1="45.47" x2="133.41" y2="45.47"/>
    <line class="st7" x1="61" y1="69.09" x2="113.5" y2="69.09"/>
    <line class="st7" x1="61" y1="92.72" x2="85.11" y2="92.72"/>
  </g>
  <g id="doc" class="st15">
    <path class="st7" d="M107.81,87.1h-35.44M84.19,110.73h-11.81M119.63,63.48h-47.25M143.25,44.29v61.43c0,9.92,0,14.89-1.93,18.68-1.7,3.33-4.41,6.04-7.74,7.74-3.79,1.93-8.75,1.93-18.68,1.93h-37.8c-9.92,0-14.89,0-18.68-1.93-3.33-1.7-6.04-4.41-7.74-7.74-1.93-3.79-1.93-8.75-1.93-18.68v-61.43c0-9.92,0-14.89,1.93-18.68,1.7-3.33,4.41-6.04,7.74-7.74,3.79-1.93,8.75-1.93,18.68-1.93h37.8c9.92,0,14.89,0,18.68,1.93,3.33,1.7,6.04,4.41,7.74,7.74,1.93,3.79,1.93,8.75,1.93,18.68Z"/>
    <path class="st7" d="M142.51,44.21h-20.82c-4.83,0-8.74-3.91-8.74-8.74v-16.79"/>
  </g>
  <g id="color" class="st15">
    <path class="st12" d="M108.55,92.15h38.69c6.57,0,9.85,0,12.36-1.28,2.21-1.12,4-2.92,5.12-5.12,1.28-2.51,1.28-5.79,1.28-12.36v-38.69c0-6.57,0-9.85-1.28-12.36-1.12-2.21-2.92-4-5.12-5.12-2.51-1.28-5.79-1.28-12.36-1.28h-38.69c-6.57,0-9.85,0-12.36,1.28-2.21,1.12-4,2.92-5.12,5.12-1.28,2.51-1.28,5.79-1.28,12.36v38.69c0,6.57,0,9.85,1.28,12.36,1.12,2.21,2.92,4,5.12,5.12,2.51,1.28,5.79,1.28,12.36,1.28Z"/>
    <path class="st10" d="M44.76,134.07h38.69c6.57,0,9.85,0,12.36-1.28,2.21-1.12,4-2.92,5.12-5.12,1.28-2.51,1.28-5.79,1.28-12.36v-38.69c0-6.57,0-9.85-1.28-12.36-1.12-2.21-2.92-4-5.12-5.12-2.51-1.28-5.79-1.28-12.36-1.28h-38.69c-6.57,0-9.85,0-12.36,1.28-2.21,1.12-4,2.92-5.12,5.12-1.28,2.51-1.28,5.79-1.28,12.36v38.69c0,6.57,0,9.85,1.28,12.36,1.12,2.21,2.92,4,5.12,5.12,2.51,1.28,5.79,1.28,12.36,1.28Z"/>
  </g>
  <path class="st1" d="M37.97,74.22l56.72,28.36c.77.39,1.16.58,1.56.65.36.07.73.07,1.08,0,.4-.08.79-.27,1.56-.65l56.72-28.36M37.97,103.63l56.72,28.36c.77.39,1.16.58,1.56.65.36.07.73.07,1.08,0,.4-.08.79-.27,1.56-.65l56.72-28.36M37.97,44.81l56.72-28.36c.77-.39,1.16-.58,1.56-.65.36-.07.73-.07,1.08,0,.4.08.79.27,1.56.65l56.72,28.36-56.72,28.36c-.77.39-1.16.58-1.56.65-.36.07-.73.07-1.08,0-.4-.08-.79-.27-1.56-.65l-56.72-28.36Z"/>
  <g id="board" class="st15">
    <g id="_x35_121" data-name="_x35_12">
      <rect class="st17" x="47.48" y="81.57" width="41.6" height="42.17" rx="1.94" ry="1.94"/>
      <ellipse class="st16" cx="123.77" cy="102.66" rx="20.8" ry="21.09"/>
      <path class="st19" d="M66.73,27.37l-19.17,38.46c-.57,1.15.26,2.51,1.55,2.51h38.33c1.29,0,2.13-1.35,1.55-2.51l-19.17-38.46c-.64-1.28-2.47-1.28-3.1,0Z"/>
      <path class="st18" d="M144.62,68.49h-35.51c-3.41,0-6.19-2.84-6.19-6.33V26.26h10.43v31.65h31.27v10.58Z"/>
    </g>
    <rect class="st14" x="26" y="15.93" width="140" height="118.13" rx="13.13" ry="13.13"/>
  </g>
  <g class="st15">
    <path class="st7" d="M149.29,120.06c0-4.09,0-6.14-.46-8.06-.41-1.71-1.08-3.34-1.99-4.84-1.03-1.69-2.46-3.14-5.34-6.03L62.05,21.13c-6.88-6.93-18.04-6.93-24.92,0-6.88,6.93-6.88,18.17,0,25.1l79.45,80c2.87,2.89,4.31,4.34,5.99,5.38,1.49.92,3.11,1.59,4.8,2,1.91.46,3.94.46,8.01.46h13.91s0-14.01,0-14.01Z"/>
    <line class="st7" x1="107.71" y1="117.29" x2="134.69" y2="94.27"/>
    <line class="st7" x1="121.2" y1="105.78" x2="37.13" y2="21.13"/>
  </g>
  <path class="st1" d="M76.33,16h39.33M37,35.67h118M141.89,35.67l-4.6,68.96c-.69,10.35-1.03,15.52-3.27,19.44-1.97,3.45-4.94,6.23-8.51,7.96-4.06,1.97-9.25,1.97-19.62,1.97h-19.79c-10.37,0-15.55,0-19.62-1.97-3.58-1.73-6.54-4.51-8.51-7.96-2.23-3.92-2.58-9.1-3.27-19.44l-4.6-68.96M82.89,65.17v32.78M109.11,65.17v32.78"/>
  <path class="st1" d="M148.44,134c0-9.15,0-13.72-1.13-17.44-2.54-8.38-9.1-14.94-17.48-17.48-3.72-1.13-8.3-1.13-17.44-1.13h-32.78c-9.15,0-13.72,0-17.45,1.13-8.38,2.54-14.94,9.1-17.48,17.48-1.13,3.72-1.13,8.3-1.13,17.44M125.5,45.5c0,16.29-13.21,29.5-29.5,29.5s-29.5-13.21-29.5-29.5,13.21-29.5,29.5-29.5,29.5,13.21,29.5,29.5Z"/>
  <path class="st1" d="M155,75v27.53c0,11.01,0,16.52-2.14,20.73-1.89,3.7-4.89,6.71-8.59,8.59-4.21,2.14-9.71,2.14-20.73,2.14h-55.07c-11.01,0-16.52,0-20.73-2.14-3.7-1.89-6.71-4.89-8.59-8.59-2.14-4.21-2.14-9.71-2.14-20.73v-27.53M122.22,42.22l-26.22-26.22M96,16l-26.22,26.22M96,16v78.67"/>
  <path class="st1" d="M155,94.67v7.87c0,11.01,0,16.52-2.14,20.73-1.89,3.7-4.89,6.71-8.59,8.59-4.21,2.14-9.71,2.14-20.73,2.14h-55.07c-11.01,0-16.52,0-20.73-2.14-3.7-1.89-6.71-4.89-8.59-8.59-2.14-4.21-2.14-9.71-2.14-20.73v-7.87M128.78,61.89l-32.78,32.78M96,94.67l-32.78-32.78M96,94.67V16"/>
  <g id="collection" class="st15">
    <path class="st7" d="M72.4,16h-24.91c-3.67,0-5.51,0-6.91.71-1.23.63-2.24,1.63-2.86,2.86-.71,1.4-.71,3.24-.71,6.91v24.91c0,3.67,0,5.51.71,6.91.63,1.23,1.63,2.24,2.86,2.86,1.4.71,3.24.71,6.91.71h24.91c3.67,0,5.51,0,6.91-.71,1.23-.63,2.24-1.63,2.86-2.86.71-1.4.71-3.24.71-6.91v-24.91c0-3.67,0-5.51-.71-6.91-.63-1.23-1.63-2.24-2.86-2.86-1.4-.71-3.24-.71-6.91-.71Z"/>
    <path class="st7" d="M144.51,16h-24.91c-3.67,0-5.51,0-6.91.71-1.23.63-2.24,1.63-2.86,2.86-.71,1.4-.71,3.24-.71,6.91v24.91c0,3.67,0,5.51.71,6.91.63,1.23,1.63,2.24,2.86,2.86,1.4.71,3.24.71,6.91.71h24.91c3.67,0,5.51,0,6.91-.71,1.23-.63,2.24-1.63,2.86-2.86.71-1.4.71-3.24.71-6.91v-24.91c0-3.67,0-5.51-.71-6.91-.63-1.23-1.63-2.24-2.86-2.86-1.4-.71-3.24-.71-6.91-.71Z"/>
    <path class="st7" d="M144.51,88.11h-24.91c-3.67,0-5.51,0-6.91.71-1.23.63-2.24,1.63-2.86,2.86-.71,1.4-.71,3.24-.71,6.91v24.91c0,3.67,0,5.51.71,6.91.63,1.23,1.63,2.24,2.86,2.86,1.4.71,3.24.71,6.91.71h24.91c3.67,0,5.51,0,6.91-.71,1.23-.63,2.24-1.63,2.86-2.86.71-1.4.71-3.24.71-6.91v-24.91c0-3.67,0-5.51-.71-6.91-.63-1.23-1.63-2.24-2.86-2.86-1.4-.71-3.24-.71-6.91-.71Z"/>
    <path class="st7" d="M72.4,88.11h-24.91c-3.67,0-5.51,0-6.91.71-1.23.63-2.24,1.63-2.86,2.86-.71,1.4-.71,3.24-.71,6.91v24.91c0,3.67,0,5.51.71,6.91.63,1.23,1.63,2.24,2.86,2.86,1.4.71,3.24.71,6.91.71h24.91c3.67,0,5.51,0,6.91-.71,1.23-.63,2.24-1.63,2.86-2.86.71-1.4.71-3.24.71-6.91v-24.91c0-3.67,0-5.51-.71-6.91-.63-1.23-1.63-2.24-2.86-2.86-1.4-.71-3.24-.71-6.91-.71Z"/>
  </g>
  <path class="st1" d="M54.7,92.7c-5.5,0-8.25,0-10.42-.9-2.89-1.2-5.19-3.5-6.39-6.39-.9-2.17-.9-4.92-.9-10.42v-40.12c0-6.61,0-9.91,1.29-12.44,1.13-2.22,2.94-4.03,5.16-5.16,2.52-1.29,5.83-1.29,12.44-1.29h40.12c5.5,0,8.25,0,10.42.9,2.89,1.2,5.19,3.49,6.39,6.39.9,2.17.9,4.92.9,10.42M97.18,134h38.94c6.61,0,9.91,0,12.44-1.29,2.22-1.13,4.03-2.94,5.16-5.16,1.29-2.52,1.29-5.83,1.29-12.44v-38.94c0-6.61,0-9.91-1.29-12.44-1.13-2.22-2.94-4.03-5.16-5.16-2.52-1.29-5.83-1.29-12.44-1.29h-38.94c-6.61,0-9.91,0-12.44,1.29-2.22,1.13-4.03,2.94-5.16,5.16-1.29,2.52-1.29,5.83-1.29,12.44v38.94c0,6.61,0,9.91,1.29,12.44,1.13,2.22,2.94,4.03,5.16,5.16,2.52,1.29,5.83,1.29,12.44,1.29Z"/>
  <g id="text" class="st15">
    <line class="st6" x1="93.97" y1="16.22" x2="93.97" y2="134"/>
    <line class="st6" x1="44.64" y1="16" x2="147.36" y2="16"/>
  </g>
  <g id="locked" class="st15">
    <rect class="st7" x="52.15" y="57.89" width="87.69" height="76.11" rx="9.24" ry="9.24"/>
    <path class="st7" d="M123.13,57.89v-14.75c0-14.98-12.15-27.13-27.13-27.13h0c-14.98,0-27.13,12.15-27.13,27.13v14.75"/>
  </g>
  <g id="locked1" data-name="locked" class="st15">
    <rect class="st7" x="52.15" y="57.89" width="87.69" height="76.11" rx="9.24" ry="9.24"/>
    <path class="st7" d="M123.13,57.89v-14.75c0-14.98-12.15-27.13-27.13-27.13h0c-12.85,0-23.62,8.94-26.42,20.94"/>
  </g>
  <path class="st1" d="M155,16l-118,118M37,16l118,118"/>
  <rect class="st13" x="25.95" y="16" width="140.1" height="118" rx="21.21" ry="21.21"/>
  <path class="st1" d="M119.33,48.78h-49.78c-4.36,0-6.53,0-8.2-.71-1.46-.63-2.65-1.63-3.4-2.86-.85-1.4-.85-3.24-.85-6.91v-22.29M134.89,134v-41.96c0-3.67,0-5.51-.85-6.91-.75-1.23-1.94-2.24-3.4-2.86-1.66-.71-3.84-.71-8.2-.71h-52.89c-4.36,0-6.53,0-8.2.71-1.46.63-2.65,1.63-3.4,2.86-.85,1.4-.85,3.24-.85,6.91v41.96M166,57.47v45.07c0,11.01,0,16.52-2.54,20.73-2.24,3.7-5.81,6.71-10.2,8.59-4.99,2.14-11.53,2.14-24.59,2.14H63.33c-13.07,0-19.6,0-24.59-2.14-4.39-1.89-7.96-4.89-10.2-8.59-2.54-4.21-2.54-9.71-2.54-20.73v-55.07c0-11.01,0-16.52,2.54-20.73,2.24-3.7,5.81-6.71,10.2-8.59,4.99-2.14,11.53-2.14,24.59-2.14h53.47c3.8,0,5.71,0,7.5.36,1.59.32,3.1.85,4.5,1.57,1.57.81,2.92,1.94,5.61,4.21l24.31,20.49c2.69,2.27,4.04,3.4,5,4.72.85,1.17,1.48,2.45,1.86,3.79.43,1.51.43,3.11.43,6.32Z"/>
  <path class="st1" d="M155,104.5h-73.75c-24.44,0-44.25-19.81-44.25-44.25S56.81,16,81.25,16h73.75M155,104.5l-29.5,29.5M155,104.5l-29.5-29.5"/>
  <path class="st1" d="M34.92,45.5h73.75c24.44,0,44.25,19.81,44.25,44.25s-19.81,44.25-44.25,44.25H34.92M34.92,45.5l29.5-29.5M34.92,45.5l29.5,29.5"/>
</svg>